# xmcd
#
# Track frame offsets:
#	150
#	12715
#	28155
#	45990
#	65202
#	78300
#	98515
#	114645
#	129510
#	148625
#	167237
#	179687
#
# Disc length: 2603 seconds
#
# Revision: 3
# Processed by: cddbd v1.5.2PL0 Copyright (c) Steve Scherf et al.
# Submitted via: EZCDAudioConverter 7.1.2.1
#
DISCID=a80a290c
DTITLE=Rodney Crowell - Keys To The Highway
DYEAR=1989
DGENRE=Country
TTITLE0=My Past Is Present 
TTITLE1=If Looks Could Kill
TTITLE2=Soul Searchin'
TTITLE3=Many A Long and Lonsome Highway
TTITLE4=We Gotta Go On Meeting Like This
TTITLE5=The Faith Is Mine
TTITLE6=Tell Me The Truth
TTITLE7=Don't Let Your Feet Slow You Down
TTITLE8=Now That We're Alone
TTITLE9=Things I Wish I'd Said
TTITLE10=I Guess We've Been Together For Too Long
TTITLE11=You Been On My Mind
EXTD=
EXTT0=
EXTT1=
EXTT2=
EXTT3=
EXTT4=
EXTT5=
EXTT6=
EXTT7=
EXTT8=
EXTT9=
EXTT10=
EXTT11=
PLAYORDER=
